
<svg width="640" height="480" xmlns="http://www.w3.org/2000/svg" xmlns:svg="http://www.w3.org/2000/svg">
 <g>
  <title>Layer 1</title>
  <path fill="#27649f" stroke-width="5" d="m86,358c0,0 178,-349 178,-349c0,0 159,348 159,348c0,0 -177,-257 -177,-257c0,0 -160,258 -160,258z" id="svg_1" stroke="#27649f"/>
  <path fill="#caca95" stroke="#caca95" stroke-width="5" stroke-dasharray="null" stroke-linejoin="null" stroke-linecap="null" d="m426,361c0,0 -407,-144 -407,-144c0,0 604,-143 604,-143c0,0 -486,146 -486,146c0,0 289,141 289,141z" id="svg_2" transform="rotate(-0.3482983112335205 320.999999999994,217.50000000000165) "/>
  <path fill="#27649f" stroke="#27649f" stroke-width="5" stroke-dasharray="null" stroke-linejoin="null" stroke-linecap="null" d="m403,145c0,0 100,206 100,206c0,0 -48,-224 -48,-224c0,0 -52,18 -52,18z" id="svg_3" transform="rotate(2.990345001220703 453.0000000000004,239.00000000000003) "/>
 </g>
</svg>
	